<mxfile host="app.diagrams.net" modified="2023-12-06T17:02:52.509Z" agent="Mozilla/5.0 (Windows NT 10.0; Win64; x64) AppleWebKit/537.36 (KHTML, like Gecko) Chrome/119.0.0.0 Safari/537.36" etag="b5bSIPDft8X6_eOHF0pF" version="22.1.5" type="device">
  <diagram name="Page-1" id="I0LELEPfp_jSpg959ud2">
    <mxGraphModel dx="1313" dy="688" grid="1" gridSize="10" guides="1" tooltips="1" connect="1" arrows="1" fold="1" page="1" pageScale="1" pageWidth="850" pageHeight="1100" math="0" shadow="0">
      <root>
        <mxCell id="0" />
        <mxCell id="1" parent="0" />
        <mxCell id="WpxPtaeJXDi3s43FhTQI-2" value="&lt;b style=&quot;font-size: 16px;&quot;&gt;USER&lt;/b&gt;" style="rounded=0;whiteSpace=wrap;html=1;fontSize=16;labelBackgroundColor=none;fillColor=#FAD9D5;strokeColor=#D0CEE2;fontColor=#1A1A1A;" vertex="1" parent="1">
          <mxGeometry x="390" y="360" width="120" height="60" as="geometry" />
        </mxCell>
        <mxCell id="WpxPtaeJXDi3s43FhTQI-3" value="&lt;u&gt;ID&lt;/u&gt;" style="ellipse;whiteSpace=wrap;html=1;rounded=0;labelBackgroundColor=none;fillColor=#FAD9D5;strokeColor=#D0CEE2;fontColor=#1A1A1A;" vertex="1" parent="1">
          <mxGeometry x="260" y="200" width="90" height="50" as="geometry" />
        </mxCell>
        <mxCell id="WpxPtaeJXDi3s43FhTQI-4" value="Name" style="ellipse;whiteSpace=wrap;html=1;rounded=0;labelBackgroundColor=none;fillColor=#FAD9D5;strokeColor=#D0CEE2;fontColor=#1A1A1A;" vertex="1" parent="1">
          <mxGeometry x="315" y="150" width="90" height="50" as="geometry" />
        </mxCell>
        <mxCell id="WpxPtaeJXDi3s43FhTQI-5" value="Email" style="ellipse;whiteSpace=wrap;html=1;rounded=0;labelBackgroundColor=none;fillColor=#FAD9D5;strokeColor=#D0CEE2;fontColor=#1A1A1A;" vertex="1" parent="1">
          <mxGeometry x="405" y="120" width="90" height="50" as="geometry" />
        </mxCell>
        <mxCell id="WpxPtaeJXDi3s43FhTQI-6" value="Password" style="ellipse;whiteSpace=wrap;html=1;rounded=0;labelBackgroundColor=none;fillColor=#FAD9D5;strokeColor=#D0CEE2;fontColor=#1A1A1A;" vertex="1" parent="1">
          <mxGeometry x="510" y="150" width="90" height="50" as="geometry" />
        </mxCell>
        <mxCell id="WpxPtaeJXDi3s43FhTQI-7" value="Image" style="ellipse;whiteSpace=wrap;html=1;rounded=0;labelBackgroundColor=none;fillColor=#FAD9D5;strokeColor=#D0CEE2;fontColor=#1A1A1A;" vertex="1" parent="1">
          <mxGeometry x="560" y="210" width="90" height="50" as="geometry" />
        </mxCell>
        <mxCell id="WpxPtaeJXDi3s43FhTQI-8" value="About" style="ellipse;whiteSpace=wrap;html=1;rounded=0;labelBackgroundColor=none;fillColor=#FAD9D5;strokeColor=#D0CEE2;fontColor=#1A1A1A;" vertex="1" parent="1">
          <mxGeometry x="610" y="270" width="90" height="50" as="geometry" />
        </mxCell>
        <mxCell id="WpxPtaeJXDi3s43FhTQI-9" value="&lt;u&gt;Role&lt;/u&gt;" style="ellipse;whiteSpace=wrap;html=1;rounded=0;labelBackgroundColor=none;fillColor=#FAD9D5;strokeColor=#D0CEE2;fontColor=#1A1A1A;" vertex="1" parent="1">
          <mxGeometry x="225" y="260" width="90" height="50" as="geometry" />
        </mxCell>
        <mxCell id="WpxPtaeJXDi3s43FhTQI-10" value="&lt;u&gt;Enabled&lt;/u&gt;" style="ellipse;whiteSpace=wrap;html=1;rounded=0;labelBackgroundColor=none;fillColor=#FAD9D5;strokeColor=#D0CEE2;fontColor=#1A1A1A;" vertex="1" parent="1">
          <mxGeometry x="225" y="320" width="90" height="50" as="geometry" />
        </mxCell>
        <mxCell id="WpxPtaeJXDi3s43FhTQI-12" value="" style="endArrow=classic;startArrow=classic;html=1;rounded=0;entryX=0.596;entryY=1.008;entryDx=0;entryDy=0;entryPerimeter=0;exitX=0.5;exitY=0;exitDx=0;exitDy=0;labelBackgroundColor=none;fontColor=default;strokeColor=#09555B;" edge="1" parent="1" source="WpxPtaeJXDi3s43FhTQI-2" target="WpxPtaeJXDi3s43FhTQI-5">
          <mxGeometry width="50" height="50" relative="1" as="geometry">
            <mxPoint x="430" y="330" as="sourcePoint" />
            <mxPoint x="410" y="210" as="targetPoint" />
          </mxGeometry>
        </mxCell>
        <mxCell id="WpxPtaeJXDi3s43FhTQI-13" value="" style="endArrow=classic;startArrow=classic;html=1;rounded=0;entryX=1;entryY=1;entryDx=0;entryDy=0;exitX=0.417;exitY=0.013;exitDx=0;exitDy=0;exitPerimeter=0;labelBackgroundColor=none;fontColor=default;strokeColor=#09555B;" edge="1" parent="1" source="WpxPtaeJXDi3s43FhTQI-2" target="WpxPtaeJXDi3s43FhTQI-4">
          <mxGeometry width="50" height="50" relative="1" as="geometry">
            <mxPoint x="406" y="340" as="sourcePoint" />
            <mxPoint x="390" y="190" as="targetPoint" />
          </mxGeometry>
        </mxCell>
        <mxCell id="WpxPtaeJXDi3s43FhTQI-14" value="" style="endArrow=classic;startArrow=classic;html=1;rounded=0;entryX=0.996;entryY=0.8;entryDx=0;entryDy=0;entryPerimeter=0;exitX=0.37;exitY=-0.04;exitDx=0;exitDy=0;exitPerimeter=0;labelBackgroundColor=none;fontColor=default;strokeColor=#09555B;" edge="1" parent="1" source="WpxPtaeJXDi3s43FhTQI-2" target="WpxPtaeJXDi3s43FhTQI-3">
          <mxGeometry width="50" height="50" relative="1" as="geometry">
            <mxPoint x="413" y="358" as="sourcePoint" />
            <mxPoint x="350" y="230" as="targetPoint" />
          </mxGeometry>
        </mxCell>
        <mxCell id="WpxPtaeJXDi3s43FhTQI-15" value="" style="endArrow=classic;startArrow=classic;html=1;rounded=0;entryX=0.932;entryY=0.74;entryDx=0;entryDy=0;entryPerimeter=0;exitX=0.25;exitY=0;exitDx=0;exitDy=0;labelBackgroundColor=none;fontColor=default;strokeColor=#09555B;" edge="1" parent="1" source="WpxPtaeJXDi3s43FhTQI-2" target="WpxPtaeJXDi3s43FhTQI-9">
          <mxGeometry width="50" height="50" relative="1" as="geometry">
            <mxPoint x="404" y="370" as="sourcePoint" />
            <mxPoint x="320" y="292" as="targetPoint" />
          </mxGeometry>
        </mxCell>
        <mxCell id="WpxPtaeJXDi3s43FhTQI-16" value="" style="endArrow=classic;startArrow=classic;html=1;rounded=0;entryX=0.974;entryY=0.623;entryDx=0;entryDy=0;entryPerimeter=0;exitX=0;exitY=0.5;exitDx=0;exitDy=0;labelBackgroundColor=none;fontColor=default;strokeColor=#09555B;" edge="1" parent="1" source="WpxPtaeJXDi3s43FhTQI-2" target="WpxPtaeJXDi3s43FhTQI-10">
          <mxGeometry width="50" height="50" relative="1" as="geometry">
            <mxPoint x="430" y="379" as="sourcePoint" />
            <mxPoint x="330" y="341" as="targetPoint" />
          </mxGeometry>
        </mxCell>
        <mxCell id="WpxPtaeJXDi3s43FhTQI-17" value="" style="endArrow=classic;startArrow=classic;html=1;rounded=0;entryX=0.342;entryY=0.992;entryDx=0;entryDy=0;entryPerimeter=0;exitX=0.5;exitY=0;exitDx=0;exitDy=0;labelBackgroundColor=none;fontColor=default;strokeColor=#09555B;" edge="1" parent="1" source="WpxPtaeJXDi3s43FhTQI-2" target="WpxPtaeJXDi3s43FhTQI-6">
          <mxGeometry width="50" height="50" relative="1" as="geometry">
            <mxPoint x="450" y="330" as="sourcePoint" />
            <mxPoint x="444" y="190" as="targetPoint" />
          </mxGeometry>
        </mxCell>
        <mxCell id="WpxPtaeJXDi3s43FhTQI-18" value="" style="endArrow=classic;startArrow=classic;html=1;rounded=0;entryX=0;entryY=1;entryDx=0;entryDy=0;exitX=0.59;exitY=-0.027;exitDx=0;exitDy=0;exitPerimeter=0;labelBackgroundColor=none;fontColor=default;strokeColor=#09555B;" edge="1" parent="1" source="WpxPtaeJXDi3s43FhTQI-2" target="WpxPtaeJXDi3s43FhTQI-7">
          <mxGeometry width="50" height="50" relative="1" as="geometry">
            <mxPoint x="460" y="340" as="sourcePoint" />
            <mxPoint x="511" y="210" as="targetPoint" />
          </mxGeometry>
        </mxCell>
        <mxCell id="WpxPtaeJXDi3s43FhTQI-19" value="" style="endArrow=classic;startArrow=classic;html=1;rounded=0;entryX=0;entryY=1;entryDx=0;entryDy=0;exitX=0.75;exitY=0;exitDx=0;exitDy=0;labelBackgroundColor=none;fontColor=default;strokeColor=#09555B;" edge="1" parent="1" source="WpxPtaeJXDi3s43FhTQI-2" target="WpxPtaeJXDi3s43FhTQI-8">
          <mxGeometry width="50" height="50" relative="1" as="geometry">
            <mxPoint x="471" y="338" as="sourcePoint" />
            <mxPoint x="543" y="253" as="targetPoint" />
          </mxGeometry>
        </mxCell>
        <mxCell id="WpxPtaeJXDi3s43FhTQI-20" value="&lt;b style=&quot;font-size: 16px;&quot;&gt;Contact&lt;/b&gt;" style="rounded=0;whiteSpace=wrap;html=1;fontSize=16;labelBackgroundColor=none;fillColor=#FAD9D5;strokeColor=#D0CEE2;fontColor=#1A1A1A;" vertex="1" parent="1">
          <mxGeometry x="1100" y="290" width="120" height="60" as="geometry" />
        </mxCell>
        <mxCell id="WpxPtaeJXDi3s43FhTQI-119" value="Phone" style="ellipse;whiteSpace=wrap;html=1;rounded=0;labelBackgroundColor=none;fillColor=#FAD9D5;strokeColor=#D0CEE2;fontColor=#1A1A1A;" vertex="1" parent="1">
          <mxGeometry x="1010" y="140" width="80" height="40" as="geometry" />
        </mxCell>
        <mxCell id="WpxPtaeJXDi3s43FhTQI-120" value="&lt;u&gt;cid&lt;/u&gt;" style="ellipse;whiteSpace=wrap;html=1;rounded=0;labelBackgroundColor=none;fillColor=#FAD9D5;strokeColor=#D0CEE2;fontColor=#1A1A1A;" vertex="1" parent="1">
          <mxGeometry x="960" y="180" width="80" height="40" as="geometry" />
        </mxCell>
        <mxCell id="WpxPtaeJXDi3s43FhTQI-121" value="Name" style="ellipse;whiteSpace=wrap;html=1;rounded=0;labelBackgroundColor=none;fillColor=#FAD9D5;strokeColor=#D0CEE2;fontColor=#1A1A1A;" vertex="1" parent="1">
          <mxGeometry x="1090" y="120" width="80" height="40" as="geometry" />
        </mxCell>
        <mxCell id="WpxPtaeJXDi3s43FhTQI-122" value="nickname" style="ellipse;whiteSpace=wrap;html=1;rounded=0;labelBackgroundColor=none;fillColor=#FAD9D5;strokeColor=#D0CEE2;fontColor=#1A1A1A;" vertex="1" parent="1">
          <mxGeometry x="1170" y="130" width="80" height="40" as="geometry" />
        </mxCell>
        <mxCell id="WpxPtaeJXDi3s43FhTQI-123" value="Email" style="ellipse;whiteSpace=wrap;html=1;rounded=0;labelBackgroundColor=none;fillColor=#FAD9D5;strokeColor=#D0CEE2;fontColor=#1A1A1A;" vertex="1" parent="1">
          <mxGeometry x="1240" y="155" width="80" height="40" as="geometry" />
        </mxCell>
        <mxCell id="WpxPtaeJXDi3s43FhTQI-124" value="description" style="ellipse;whiteSpace=wrap;html=1;rounded=0;labelBackgroundColor=none;fillColor=#FAD9D5;strokeColor=#D0CEE2;fontColor=#1A1A1A;" vertex="1" parent="1">
          <mxGeometry x="1290" y="190" width="80" height="40" as="geometry" />
        </mxCell>
        <mxCell id="WpxPtaeJXDi3s43FhTQI-125" value="Image" style="ellipse;whiteSpace=wrap;html=1;rounded=0;labelBackgroundColor=none;fillColor=#FAD9D5;strokeColor=#D0CEE2;fontColor=#1A1A1A;" vertex="1" parent="1">
          <mxGeometry x="1330" y="235" width="80" height="40" as="geometry" />
        </mxCell>
        <mxCell id="WpxPtaeJXDi3s43FhTQI-126" value="" style="endArrow=none;html=1;rounded=0;entryX=0.744;entryY=1.033;entryDx=0;entryDy=0;entryPerimeter=0;exitX=0.315;exitY=-0.006;exitDx=0;exitDy=0;exitPerimeter=0;labelBackgroundColor=none;fontColor=default;strokeColor=#09555B;" edge="1" parent="1" source="WpxPtaeJXDi3s43FhTQI-20" target="WpxPtaeJXDi3s43FhTQI-119">
          <mxGeometry width="50" height="50" relative="1" as="geometry">
            <mxPoint x="1117.52" y="295.53999999999996" as="sourcePoint" />
            <mxPoint x="1080.0000000000002" y="170" as="targetPoint" />
            <Array as="points">
              <mxPoint x="1093.04" y="227.76" />
            </Array>
          </mxGeometry>
        </mxCell>
        <mxCell id="WpxPtaeJXDi3s43FhTQI-127" value="" style="endArrow=none;html=1;rounded=0;entryX=0.337;entryY=1.056;entryDx=0;entryDy=0;entryPerimeter=0;exitX=0.577;exitY=-0.006;exitDx=0;exitDy=0;exitPerimeter=0;labelBackgroundColor=none;fontColor=default;strokeColor=#09555B;" edge="1" parent="1" source="WpxPtaeJXDi3s43FhTQI-20">
          <mxGeometry width="50" height="50" relative="1" as="geometry">
            <mxPoint x="1237" y="296" as="sourcePoint" />
            <mxPoint x="1200" y="170" as="targetPoint" />
            <Array as="points" />
          </mxGeometry>
        </mxCell>
        <mxCell id="WpxPtaeJXDi3s43FhTQI-128" value="" style="endArrow=none;html=1;rounded=0;entryX=0.337;entryY=1.056;entryDx=0;entryDy=0;entryPerimeter=0;exitX=0.75;exitY=0;exitDx=0;exitDy=0;labelBackgroundColor=none;fontColor=default;strokeColor=#09555B;" edge="1" parent="1" source="WpxPtaeJXDi3s43FhTQI-20">
          <mxGeometry width="50" height="50" relative="1" as="geometry">
            <mxPoint x="1227" y="306" as="sourcePoint" />
            <mxPoint x="1250" y="190" as="targetPoint" />
            <Array as="points" />
          </mxGeometry>
        </mxCell>
        <mxCell id="WpxPtaeJXDi3s43FhTQI-129" value="" style="endArrow=none;html=1;rounded=0;entryX=0.021;entryY=0.783;entryDx=0;entryDy=0;entryPerimeter=0;exitX=0.931;exitY=-0.027;exitDx=0;exitDy=0;exitPerimeter=0;labelBackgroundColor=none;fontColor=default;strokeColor=#09555B;" edge="1" parent="1" source="WpxPtaeJXDi3s43FhTQI-20" target="WpxPtaeJXDi3s43FhTQI-124">
          <mxGeometry width="50" height="50" relative="1" as="geometry">
            <mxPoint x="1208" y="296" as="sourcePoint" />
            <mxPoint x="1260" y="200" as="targetPoint" />
            <Array as="points" />
          </mxGeometry>
        </mxCell>
        <mxCell id="WpxPtaeJXDi3s43FhTQI-130" value="" style="endArrow=none;html=1;rounded=0;labelBackgroundColor=none;fontColor=default;strokeColor=#09555B;" edge="1" parent="1" source="WpxPtaeJXDi3s43FhTQI-20" target="WpxPtaeJXDi3s43FhTQI-125">
          <mxGeometry width="50" height="50" relative="1" as="geometry">
            <mxPoint x="1222" y="298" as="sourcePoint" />
            <mxPoint x="1302" y="231" as="targetPoint" />
            <Array as="points" />
          </mxGeometry>
        </mxCell>
        <mxCell id="WpxPtaeJXDi3s43FhTQI-131" value="" style="endArrow=none;html=1;rounded=0;entryX=0.575;entryY=1.025;entryDx=0;entryDy=0;entryPerimeter=0;labelBackgroundColor=none;fontColor=default;strokeColor=#09555B;" edge="1" parent="1" source="WpxPtaeJXDi3s43FhTQI-20" target="WpxPtaeJXDi3s43FhTQI-121">
          <mxGeometry width="50" height="50" relative="1" as="geometry">
            <mxPoint x="1164" y="286" as="sourcePoint" />
            <mxPoint x="1127" y="160" as="targetPoint" />
            <Array as="points">
              <mxPoint x="1140" y="218" />
            </Array>
          </mxGeometry>
        </mxCell>
        <mxCell id="WpxPtaeJXDi3s43FhTQI-132" value="" style="endArrow=none;html=1;rounded=0;entryX=1;entryY=1;entryDx=0;entryDy=0;exitX=0.25;exitY=0;exitDx=0;exitDy=0;labelBackgroundColor=none;fontColor=default;strokeColor=#09555B;" edge="1" parent="1" source="WpxPtaeJXDi3s43FhTQI-20" target="WpxPtaeJXDi3s43FhTQI-120">
          <mxGeometry width="50" height="50" relative="1" as="geometry">
            <mxPoint x="1148" y="300" as="sourcePoint" />
            <mxPoint x="1080" y="191" as="targetPoint" />
            <Array as="points" />
          </mxGeometry>
        </mxCell>
        <mxCell id="WpxPtaeJXDi3s43FhTQI-133" value="work" style="ellipse;whiteSpace=wrap;html=1;rounded=0;labelBackgroundColor=none;fillColor=#FAD9D5;strokeColor=#D0CEE2;fontColor=#1A1A1A;" vertex="1" parent="1">
          <mxGeometry x="950" y="230" width="80" height="50" as="geometry" />
        </mxCell>
        <mxCell id="WpxPtaeJXDi3s43FhTQI-134" value="" style="endArrow=none;html=1;rounded=0;entryX=1;entryY=1;entryDx=0;entryDy=0;exitX=0;exitY=0.5;exitDx=0;exitDy=0;labelBackgroundColor=none;fontColor=default;strokeColor=#09555B;" edge="1" parent="1" source="WpxPtaeJXDi3s43FhTQI-20" target="WpxPtaeJXDi3s43FhTQI-133">
          <mxGeometry width="50" height="50" relative="1" as="geometry">
            <mxPoint x="1122" y="346" as="sourcePoint" />
            <mxPoint x="1020" y="270" as="targetPoint" />
            <Array as="points" />
          </mxGeometry>
        </mxCell>
        <mxCell id="WpxPtaeJXDi3s43FhTQI-135" value="has" style="rhombus;whiteSpace=wrap;html=1;rounded=0;labelBackgroundColor=none;fillColor=#FAD9D5;strokeColor=#D0CEE2;fontColor=#1A1A1A;" vertex="1" parent="1">
          <mxGeometry x="810" y="490" width="80" height="80" as="geometry" />
        </mxCell>
        <mxCell id="WpxPtaeJXDi3s43FhTQI-136" value="" style="endArrow=none;html=1;rounded=0;entryX=0.75;entryY=1;entryDx=0;entryDy=0;exitX=0;exitY=0.5;exitDx=0;exitDy=0;labelBackgroundColor=none;fontColor=default;strokeColor=#09555B;" edge="1" parent="1" source="WpxPtaeJXDi3s43FhTQI-135" target="WpxPtaeJXDi3s43FhTQI-2">
          <mxGeometry width="50" height="50" relative="1" as="geometry">
            <mxPoint x="760" y="470" as="sourcePoint" />
            <mxPoint x="810" y="420" as="targetPoint" />
          </mxGeometry>
        </mxCell>
        <mxCell id="WpxPtaeJXDi3s43FhTQI-137" value="" style="endArrow=none;html=1;rounded=0;entryX=0.5;entryY=1;entryDx=0;entryDy=0;exitX=1;exitY=0.5;exitDx=0;exitDy=0;labelBackgroundColor=none;fontColor=default;strokeColor=#09555B;" edge="1" parent="1" source="WpxPtaeJXDi3s43FhTQI-135" target="WpxPtaeJXDi3s43FhTQI-20">
          <mxGeometry width="50" height="50" relative="1" as="geometry">
            <mxPoint x="820" y="540" as="sourcePoint" />
            <mxPoint x="490" y="430" as="targetPoint" />
          </mxGeometry>
        </mxCell>
        <mxCell id="WpxPtaeJXDi3s43FhTQI-138" value="1" style="text;html=1;strokeColor=none;fillColor=none;align=center;verticalAlign=middle;whiteSpace=wrap;rounded=0;labelBackgroundColor=none;fontColor=#1A1A1A;" vertex="1" parent="1">
          <mxGeometry x="590" y="480" width="60" height="30" as="geometry" />
        </mxCell>
        <mxCell id="WpxPtaeJXDi3s43FhTQI-139" value="M" style="text;html=1;strokeColor=none;fillColor=none;align=center;verticalAlign=middle;whiteSpace=wrap;rounded=0;labelBackgroundColor=none;fontColor=#1A1A1A;" vertex="1" parent="1">
          <mxGeometry x="880" y="480" width="60" height="30" as="geometry" />
        </mxCell>
      </root>
    </mxGraphModel>
  </diagram>
</mxfile>
